<?xml version="1.0" encoding="UTF-8"?>
<svg id="Layer_2" data-name="Layer 2" xmlns="http://www.w3.org/2000/svg" viewBox="0 0 49.16 49.47">
  <g id="Layer_5" data-name="Layer 5">
    <path id="Mountain_Logo" data-name="Mountain Logo" d="m44.72,31.84c1.33,2.83,2.48,5.3,3.03,6.58.97,2.23,2.32,6.37.55,9.07-.59.91-1.77,1.99-4.01,1.99H4.81c-1.94,0-3.06-.95-3.66-1.74-1.64-2.19-1.14-5.64-.81-6.78.17-.58.67-2.48,1.37-5.13.38-1.45.76-2.86,1.12-4.24l2.18-8.16C7.98,12.39,10.1,5.1,11.01,3.51,12.66.62,14.5,0,15.76,0c1.18-.03,2.94.54,4.49,3.17,1.75,2.66,4.73,7.79,6.86,11.48,1.26-1.78,2.64-2.69,4.18-2.76,2.2-.12,4.17,1.48,6.09,4.83.4.7,1.71,3.36,3.28,6.61"/>
  </g>
</svg>